<svg xmlns="http://www.w3.org/2000/svg" xmlns:xlink="http://www.w3.org/1999/xlink" width="500" zoomAndPan="magnify" viewBox="0 0 375 374.999991" height="500" preserveAspectRatio="xMidYMid meet" version="1.0"><path fill="#4caf50" d="M 367.988281 342.511719 C 355.871094 294.414062 324.683594 255.023438 283.40625 230.804688 L 307.609375 198.375 C 312.734375 191.519531 311.328125 181.789062 304.460938 176.65625 C 297.597656 171.535156 287.898438 172.929688 282.769531 179.804688 L 254.898438 217.164062 C 233.65625 209.128906 210.679688 204.613281 186.726562 204.613281 C 159.8125 204.613281 134.03125 210.136719 110.683594 220.207031 L 74.410156 178.859375 C 68.769531 172.433594 58.996094 171.796875 52.550781 177.445312 C 46.117188 183.09375 45.484375 192.898438 51.140625 199.339844 L 82.652344 235.269531 C 45.035156 259.738281 16.851562 297.316406 5.480469 342.527344 C 3.511719 350.316406 5.246094 358.460938 10.234375 364.871094 C 15.363281 371.480469 23.171875 375.28125 31.632812 375.28125 L 341.816406 375.28125 C 350.277344 375.28125 358.070312 371.480469 363.230469 364.871094 C 368.21875 358.460938 369.953125 350.316406 367.988281 342.511719 Z M 367.988281 342.511719 " fillOpacity="1" fillRule="nonzero"/><path fill="#ffffff" d="M 140.242188 305.460938 C 140.242188 306.226562 140.207031 306.984375 140.132812 307.742188 C 140.058594 308.503906 139.945312 309.253906 139.796875 310.003906 C 139.648438 310.75 139.464844 311.488281 139.242188 312.21875 C 139.023438 312.949219 138.765625 313.664062 138.476562 314.367188 C 138.183594 315.074219 137.859375 315.761719 137.5 316.433594 C 137.140625 317.105469 136.75 317.757812 136.328125 318.390625 C 135.902344 319.027344 135.453125 319.636719 134.96875 320.226562 C 134.484375 320.816406 133.976562 321.378906 133.4375 321.917969 C 132.898438 322.457031 132.335938 322.96875 131.746094 323.453125 C 131.160156 323.9375 130.546875 324.390625 129.914062 324.8125 C 129.28125 325.238281 128.628906 325.628906 127.957031 325.988281 C 127.289062 326.347656 126.601562 326.671875 125.898438 326.964844 C 125.195312 327.253906 124.476562 327.511719 123.75 327.734375 C 123.019531 327.953125 122.285156 328.140625 121.539062 328.289062 C 120.789062 328.4375 120.039062 328.546875 119.28125 328.625 C 118.523438 328.699219 117.765625 328.734375 117.003906 328.734375 C 116.242188 328.734375 115.484375 328.699219 114.726562 328.625 C 113.96875 328.546875 113.214844 328.4375 112.46875 328.289062 C 111.722656 328.140625 110.984375 327.953125 110.257812 327.734375 C 109.527344 327.511719 108.8125 327.253906 108.109375 326.964844 C 107.40625 326.671875 106.71875 326.347656 106.046875 325.988281 C 105.375 325.628906 104.722656 325.238281 104.089844 324.8125 C 103.457031 324.390625 102.847656 323.9375 102.257812 323.453125 C 101.671875 322.96875 101.109375 322.457031 100.570312 321.917969 C 100.03125 321.378906 99.519531 320.816406 99.039062 320.226562 C 98.554688 319.636719 98.101562 319.027344 97.679688 318.390625 C 97.257812 317.757812 96.867188 317.105469 96.507812 316.433594 C 96.148438 315.761719 95.824219 315.074219 95.53125 314.367188 C 95.242188 313.664062 94.984375 312.949219 94.761719 312.21875 C 94.542969 311.488281 94.359375 310.75 94.210938 310.003906 C 94.0625 309.253906 93.949219 308.503906 93.875 307.742188 C 93.800781 306.984375 93.761719 306.226562 93.761719 305.460938 C 93.761719 304.699219 93.800781 303.941406 93.875 303.179688 C 93.949219 302.421875 94.0625 301.667969 94.210938 300.921875 C 94.359375 300.175781 94.542969 299.4375 94.761719 298.707031 C 94.984375 297.976562 95.242188 297.261719 95.53125 296.554688 C 95.824219 295.851562 96.148438 295.164062 96.507812 294.492188 C 96.867188 293.820312 97.257812 293.167969 97.679688 292.53125 C 98.101562 291.898438 98.554688 291.289062 99.039062 290.699219 C 99.519531 290.109375 100.03125 289.546875 100.570312 289.007812 C 101.109375 288.46875 101.671875 287.957031 102.257812 287.472656 C 102.847656 286.988281 103.457031 286.535156 104.089844 286.113281 C 104.722656 285.6875 105.375 285.296875 106.046875 284.9375 C 106.71875 284.578125 107.40625 284.253906 108.109375 283.960938 C 108.8125 283.667969 109.527344 283.414062 110.257812 283.191406 C 110.984375 282.96875 111.722656 282.785156 112.46875 282.636719 C 113.214844 282.488281 113.96875 282.375 114.726562 282.300781 C 115.484375 282.226562 116.242188 282.191406 117.003906 282.191406 C 117.765625 282.191406 118.523438 282.226562 119.28125 282.300781 C 120.039062 282.375 120.789062 282.488281 121.539062 282.636719 C 122.285156 282.785156 123.019531 282.96875 123.75 283.191406 C 124.476562 283.414062 125.195312 283.667969 125.898438 283.960938 C 126.601562 284.253906 127.289062 284.578125 127.957031 284.9375 C 128.628906 285.296875 129.28125 285.6875 129.914062 286.113281 C 130.546875 286.535156 131.160156 286.988281 131.746094 287.472656 C 132.335938 287.957031 132.898438 288.46875 133.4375 289.007812 C 133.976562 289.546875 134.484375 290.109375 134.96875 290.699219 C 135.453125 291.289062 135.902344 291.898438 136.328125 292.53125 C 136.75 293.167969 137.140625 293.820312 137.5 294.492188 C 137.859375 295.164062 138.183594 295.851562 138.476562 296.554688 C 138.765625 297.261719 139.023438 297.976562 139.242188 298.707031 C 139.464844 299.4375 139.648438 300.175781 139.796875 300.921875 C 139.945312 301.667969 140.058594 302.421875 140.132812 303.179688 C 140.207031 303.941406 140.242188 304.699219 140.242188 305.460938 Z M 140.242188 305.460938 " fillOpacity="1" fillRule="nonzero"/><path fill="#ffffff" d="M 279.6875 305.460938 C 279.6875 306.226562 279.652344 306.984375 279.574219 307.742188 C 279.5 308.503906 279.390625 309.253906 279.242188 310.003906 C 279.09375 310.75 278.910156 311.488281 278.6875 312.21875 C 278.464844 312.949219 278.210938 313.664062 277.917969 314.367188 C 277.628906 315.074219 277.300781 315.761719 276.945312 316.433594 C 276.585938 317.105469 276.195312 317.757812 275.769531 318.390625 C 275.347656 319.027344 274.894531 319.636719 274.414062 320.226562 C 273.929688 320.816406 273.417969 321.378906 272.882812 321.917969 C 272.34375 322.457031 271.78125 322.96875 271.191406 323.453125 C 270.601562 323.9375 269.992188 324.390625 269.359375 324.8125 C 268.726562 325.238281 268.074219 325.628906 267.402344 325.988281 C 266.730469 326.347656 266.042969 326.671875 265.339844 326.964844 C 264.636719 327.253906 263.921875 327.511719 263.195312 327.734375 C 262.464844 327.953125 261.726562 328.140625 260.980469 328.289062 C 260.234375 328.4375 259.484375 328.546875 258.726562 328.625 C 257.96875 328.699219 257.207031 328.734375 256.449219 328.734375 C 255.6875 328.734375 254.925781 328.699219 254.167969 328.625 C 253.410156 328.546875 252.660156 328.4375 251.914062 328.289062 C 251.167969 328.140625 250.429688 327.953125 249.699219 327.734375 C 248.972656 327.511719 248.257812 327.253906 247.554688 326.964844 C 246.851562 326.671875 246.164062 326.347656 245.492188 325.988281 C 244.820312 325.628906 244.167969 325.238281 243.535156 324.8125 C 242.902344 324.390625 242.292969 323.9375 241.703125 323.453125 C 241.117188 322.96875 240.550781 322.457031 240.015625 321.917969 C 239.476562 321.378906 238.964844 320.816406 238.480469 320.226562 C 238 319.636719 237.546875 319.027344 237.125 318.390625 C 236.699219 317.757812 236.308594 317.105469 235.949219 316.433594 C 235.59375 315.761719 235.265625 315.074219 234.976562 314.367188 C 234.683594 313.664062 234.429688 312.949219 234.207031 312.21875 C 233.988281 311.488281 233.800781 310.75 233.652344 310.003906 C 233.503906 309.253906 233.394531 308.503906 233.320312 307.742188 C 233.242188 306.984375 233.207031 306.226562 233.207031 305.460938 C 233.207031 304.699219 233.242188 303.941406 233.320312 303.179688 C 233.394531 302.421875 233.503906 301.667969 233.652344 300.921875 C 233.800781 300.175781 233.988281 299.4375 234.207031 298.707031 C 234.429688 297.976562 234.683594 297.261719 234.976562 296.554688 C 235.265625 295.851562 235.59375 295.164062 235.949219 294.492188 C 236.308594 293.820312 236.699219 293.167969 237.125 292.53125 C 237.546875 291.898438 238 291.289062 238.480469 290.699219 C 238.964844 290.109375 239.476562 289.546875 240.015625 289.007812 C 240.550781 288.46875 241.117188 287.957031 241.703125 287.472656 C 242.292969 286.988281 242.902344 286.535156 243.535156 286.113281 C 244.167969 285.6875 244.820312 285.296875 245.492188 284.9375 C 246.164062 284.578125 246.851562 284.253906 247.554688 283.960938 C 248.257812 283.667969 248.972656 283.414062 249.699219 283.191406 C 250.429688 282.96875 251.167969 282.785156 251.914062 282.636719 C 252.660156 282.488281 253.410156 282.375 254.167969 282.300781 C 254.925781 282.226562 255.6875 282.191406 256.449219 282.191406 C 257.207031 282.191406 257.96875 282.226562 258.726562 282.300781 C 259.484375 282.375 260.234375 282.488281 260.980469 282.636719 C 261.726562 282.785156 262.464844 282.96875 263.195312 283.191406 C 263.921875 283.414062 264.636719 283.667969 265.339844 283.960938 C 266.042969 284.253906 266.730469 284.578125 267.402344 284.9375 C 268.074219 285.296875 268.726562 285.6875 269.359375 286.113281 C 269.992188 286.535156 270.601562 286.988281 271.191406 287.472656 C 271.78125 287.957031 272.34375 288.46875 272.882812 289.007812 C 273.417969 289.546875 273.929688 290.109375 274.414062 290.699219 C 274.894531 291.289062 275.347656 291.898438 275.769531 292.53125 C 276.195312 293.167969 276.585938 293.820312 276.945312 294.492188 C 277.300781 295.164062 277.628906 295.851562 277.917969 296.554688 C 278.210938 297.261719 278.464844 297.976562 278.6875 298.707031 C 278.910156 299.4375 279.09375 300.175781 279.242188 300.921875 C 279.390625 301.667969 279.5 302.421875 279.574219 303.179688 C 279.652344 303.941406 279.6875 304.699219 279.6875 305.460938 Z M 279.6875 305.460938 " fillOpacity="1" fillRule="nonzero"/></svg>