<svg xmlns="http://www.w3.org/2000/svg" xmlns:xlink="http://www.w3.org/1999/xlink" width="500" zoomAndPan="magnify" viewBox="0 0 375 374.999991" height="500" preserveAspectRatio="xMidYMid meet" version="1.0"><defs><clipPath id="id1"><path d="M 43 0 L 348.75 0 L 348.75 375 L 43 375 Z M 43 0 " clip-rule="nonzero"/></clipPath></defs><g clip-path="url(#id1)"><path fill="#000000" d="M 298.261719 198.71875 C 298.796875 255.324219 347.921875 274.160156 348.46875 274.398438 C 348.054688 275.730469 340.617188 301.25 322.582031 327.601562 C 306.996094 350.382812 290.816406 373.097656 265.320312 373.558594 C 240.277344 374.023438 232.222656 358.710938 203.585938 358.710938 C 174.960938 358.710938 166.011719 373.097656 142.308594 374.023438 C 117.703125 374.953125 98.96875 349.386719 83.25 326.683594 C 51.128906 280.238281 26.582031 195.460938 59.542969 138.222656 C 75.917969 109.800781 105.179688 91.800781 136.941406 91.339844 C 161.101562 90.878906 183.90625 107.59375 198.671875 107.59375 C 213.4375 107.59375 241.144531 87.496094 270.28125 90.445312 C 282.476562 90.953125 316.703125 95.371094 338.691406 127.550781 C 336.917969 128.644531 297.847656 151.390625 298.261719 198.71875 M 251.199219 59.722656 C 264.261719 43.914062 273.054688 21.902344 270.648438 0 C 251.828125 0.757812 229.058594 12.546875 215.554688 28.351562 C 203.453125 42.34375 192.855469 64.742188 195.710938 86.210938 C 216.695312 87.832031 238.132812 75.542969 251.199219 59.722656 " fill-opacity="1" fill-rule="nonzero"/></g></svg>