<svg xmlns="http://www.w3.org/2000/svg" xmlns:xlink="http://www.w3.org/1999/xlink" width="500" zoomAndPan="magnify" viewBox="0 0 375 374.999991" height="500" preserveAspectRatio="xMidYMid meet" version="1.0"><path fill="#00549d" d="M 177.929688 3.429688 C 183.96875 0.0429688 191.40625 0.0429688 197.4375 3.429688 C 227.285156 20.164062 317.097656 70.53125 346.953125 87.261719 C 352.996094 90.640625 356.714844 96.894531 356.714844 103.667969 C 356.714844 137.132812 356.714844 237.859375 356.714844 271.324219 C 356.714844 278.09375 352.996094 284.351562 346.953125 287.738281 C 317.109375 304.46875 227.292969 354.835938 197.4375 371.570312 C 191.398438 374.957031 183.960938 374.957031 177.929688 371.570312 C 148.082031 354.835938 58.265625 304.46875 28.414062 287.738281 C 22.378906 284.351562 18.660156 278.105469 18.660156 271.332031 C 18.660156 237.867188 18.660156 137.140625 18.660156 103.675781 C 18.660156 96.90625 22.378906 90.648438 28.421875 87.261719 C 58.257812 70.53125 148.089844 20.164062 177.929688 3.429688 Z M 177.929688 3.429688 " fill-opacity="1" fill-rule="evenodd"/><path fill="#0086d4" d="M 21.367188 279.953125 C 19 276.789062 18.660156 273.785156 18.660156 269.742188 C 18.660156 236.472656 18.660156 136.324219 18.660156 103.046875 C 18.660156 96.308594 22.371094 90.089844 28.394531 86.730469 C 58.132812 70.09375 147.644531 20.019531 177.386719 3.375 C 183.410156 0.0078125 191.566406 0.078125 197.589844 3.449219 C 227.328125 20.082031 316.539062 69.730469 346.277344 86.367188 C 348.679688 87.714844 350.511719 89.34375 352.148438 91.484375 Z M 21.367188 279.953125 " fill-opacity="1" fill-rule="evenodd"/><path fill="#ffffff" d="M 187.6875 63.09375 C 256.425781 63.09375 312.234375 118.835938 312.234375 187.5 C 312.234375 256.164062 256.425781 311.90625 187.6875 311.90625 C 118.949219 311.90625 63.140625 256.164062 63.140625 187.5 C 63.140625 118.835938 118.949219 63.09375 187.6875 63.09375 Z M 187.6875 125.296875 C 222.054688 125.296875 249.960938 153.164062 249.960938 187.5 C 249.960938 221.828125 222.054688 249.703125 187.6875 249.703125 C 153.320312 249.703125 125.414062 221.828125 125.414062 187.5 C 125.414062 153.164062 153.3125 125.296875 187.6875 125.296875 Z M 187.6875 125.296875 " fill-opacity="1" fill-rule="evenodd"/><path fill="#0075c0" d="M 352.132812 91.574219 C 356.722656 95.863281 356.632812 102.335938 356.632812 107.425781 C 356.632812 141.148438 356.347656 237.066406 356.714844 270.789062 C 356.75 274.308594 355.582031 278.015625 353.839844 280.804688 L 184.066406 187.5 Z M 352.132812 91.574219 " fill-opacity="1" fill-rule="evenodd"/><path fill="#ffffff" d="M 249.960938 160.839844 L 267.753906 160.839844 L 267.753906 214.160156 L 249.960938 214.160156 Z M 312.234375 160.839844 L 330.023438 160.839844 L 330.023438 214.160156 L 312.234375 214.160156 Z M 312.234375 160.839844 " fill-opacity="1" fill-rule="evenodd"/><path fill="#ffffff" d="M 232.167969 178.613281 L 285.542969 178.613281 L 285.542969 196.386719 L 232.167969 196.386719 Z M 294.441406 178.613281 L 347.816406 178.613281 L 347.816406 196.386719 L 294.441406 196.386719 Z M 294.441406 178.613281 " fill-opacity="1" fill-rule="evenodd"/></svg>