<svg xmlns="http://www.w3.org/2000/svg" xmlns:xlink="http://www.w3.org/1999/xlink" width="500" zoomAndPan="magnify" viewBox="0 0 375 374.999991" height="500" preserveAspectRatio="xMidYMid meet" version="1.0"><defs><clipPath id="id1"><path d="M 5.453125 77 L 133 77 L 133 298 L 5.453125 298 Z M 5.453125 77 " clip-rule="nonzero"/></clipPath><clipPath id="id2"><path d="M 364.660156 153.660156 L 191.394531 153.660156 L 191.394531 225.566406 L 291.128906 225.566406 C 281.832031 271.25 242.953125 297.476562 191.394531 297.476562 C 130.542969 297.476562 81.523438 248.410156 81.523438 187.5 C 81.523438 126.589844 130.542969 77.519531 191.394531 77.519531 C 217.597656 77.519531 241.261719 86.828125 259.855469 102.054688 L 313.949219 47.910156 C 280.988281 19.148438 238.726562 1.382812 191.394531 1.382812 C 88.28125 1.382812 5.453125 84.289062 5.453125 187.5 C 5.453125 290.707031 88.28125 373.613281 191.394531 373.613281 C 284.367188 373.613281 368.886719 305.9375 368.886719 187.5 C 368.886719 176.5 367.195312 164.65625 364.660156 153.660156 Z M 364.660156 153.660156 " clip-rule="nonzero"/></clipPath><clipPath id="id3"><path d="M 5.453125 1 L 368.886719 1 L 368.886719 188 L 5.453125 188 Z M 5.453125 1 " clip-rule="nonzero"/></clipPath><clipPath id="id4"><path d="M 364.660156 153.660156 L 191.394531 153.660156 L 191.394531 225.566406 L 291.128906 225.566406 C 281.832031 271.25 242.953125 297.476562 191.394531 297.476562 C 130.542969 297.476562 81.523438 248.410156 81.523438 187.5 C 81.523438 126.589844 130.542969 77.519531 191.394531 77.519531 C 217.597656 77.519531 241.261719 86.828125 259.855469 102.054688 L 313.949219 47.910156 C 280.988281 19.148438 238.726562 1.382812 191.394531 1.382812 C 88.28125 1.382812 5.453125 84.289062 5.453125 187.5 C 5.453125 290.707031 88.28125 373.613281 191.394531 373.613281 C 284.367188 373.613281 368.886719 305.9375 368.886719 187.5 C 368.886719 176.5 367.195312 164.65625 364.660156 153.660156 Z M 364.660156 153.660156 " clip-rule="nonzero"/></clipPath><clipPath id="id5"><path d="M 5.453125 1 L 368.886719 1 L 368.886719 373.613281 L 5.453125 373.613281 Z M 5.453125 1 " clip-rule="nonzero"/></clipPath><clipPath id="id6"><path d="M 364.660156 153.660156 L 191.394531 153.660156 L 191.394531 225.566406 L 291.128906 225.566406 C 281.832031 271.25 242.953125 297.476562 191.394531 297.476562 C 130.542969 297.476562 81.523438 248.410156 81.523438 187.5 C 81.523438 126.589844 130.542969 77.519531 191.394531 77.519531 C 217.597656 77.519531 241.261719 86.828125 259.855469 102.054688 L 313.949219 47.910156 C 280.988281 19.148438 238.726562 1.382812 191.394531 1.382812 C 88.28125 1.382812 5.453125 84.289062 5.453125 187.5 C 5.453125 290.707031 88.28125 373.613281 191.394531 373.613281 C 284.367188 373.613281 368.886719 305.9375 368.886719 187.5 C 368.886719 176.5 367.195312 164.65625 364.660156 153.660156 Z M 364.660156 153.660156 " clip-rule="nonzero"/></clipPath><clipPath id="id7"><path d="M 98 77 L 368.886719 77 L 368.886719 373.613281 L 98 373.613281 Z M 98 77 " clip-rule="nonzero"/></clipPath><clipPath id="id8"><path d="M 364.660156 153.660156 L 191.394531 153.660156 L 191.394531 225.566406 L 291.128906 225.566406 C 281.832031 271.25 242.953125 297.476562 191.394531 297.476562 C 130.542969 297.476562 81.523438 248.410156 81.523438 187.5 C 81.523438 126.589844 130.542969 77.519531 191.394531 77.519531 C 217.597656 77.519531 241.261719 86.828125 259.855469 102.054688 L 313.949219 47.910156 C 280.988281 19.148438 238.726562 1.382812 191.394531 1.382812 C 88.28125 1.382812 5.453125 84.289062 5.453125 187.5 C 5.453125 290.707031 88.28125 373.613281 191.394531 373.613281 C 284.367188 373.613281 368.886719 305.9375 368.886719 187.5 C 368.886719 176.5 367.195312 164.65625 364.660156 153.660156 Z M 364.660156 153.660156 " clip-rule="nonzero"/></clipPath></defs><g clip-path="url(#id1)"><g clip-path="url(#id2)"><path fill="#fbbc05" d="M -11.449219 297.476562 L -11.449219 77.519531 L 132.234375 187.5 Z M -11.449219 297.476562 " fill-opacity="1" fill-rule="nonzero"/></g></g><g clip-path="url(#id3)"><g clip-path="url(#id4)"><path fill="#ea4335" d="M -11.449219 77.519531 L 132.234375 187.5 L 191.394531 135.894531 L 394.242188 102.902344 L 394.242188 -15.535156 L -11.449219 -15.535156 Z M -11.449219 77.519531 " fill-opacity="1" fill-rule="nonzero"/></g></g><g clip-path="url(#id5)"><g clip-path="url(#id6)"><path fill="#34a853" d="M -11.449219 297.476562 L 242.109375 102.902344 L 308.878906 111.359375 L 394.242188 -15.535156 L 394.242188 390.535156 L -11.449219 390.535156 Z M -11.449219 297.476562 " fill-opacity="1" fill-rule="nonzero"/></g></g><g clip-path="url(#id7)"><g clip-path="url(#id8)"><path fill="#4285f4" d="M 394.242188 390.535156 L 132.234375 187.5 L 98.425781 162.121094 L 394.242188 77.519531 Z M 394.242188 390.535156 " fill-opacity="1" fill-rule="nonzero"/></g></g></svg>