<svg xmlns="http://www.w3.org/2000/svg" xmlns:xlink="http://www.w3.org/1999/xlink" width="500" zoomAndPan="magnify" viewBox="0 0 375 374.999991" height="500" preserveAspectRatio="xMidYMid meet" version="1.0"><defs><clipPath id="id1"><path d="M 24 1 L 351.9375 1 L 351.9375 375 L 24 375 Z M 24 1 " clip-rule="nonzero"/></clipPath></defs><g clip-path="url(#id1)"><path fill="#8cc03e" d="M 147.402344 328.738281 C 137.808594 334.292969 135.984375 334.949219 126.964844 338.136719 C 124.785156 338.886719 121.480469 340.207031 128.210938 344.066406 L 173.386719 371.109375 C 177.703125 373.644531 182.6875 374.96875 187.59375 374.96875 L 187.625 375 C 192.59375 375 197.5 373.660156 201.816406 371.140625 L 337.066406 292.140625 C 345.851562 286.960938 351.273438 277.390625 351.273438 267.167969 L 351.273438 109.261719 C 351.273438 98.960938 345.867188 89.394531 337.066406 84.289062 L 201.816406 5.210938 C 193.328125 0.328125 181.96875 0.328125 173.402344 5.210938 L 38.3125 84.210938 C 29.539062 89.332031 24.117188 98.960938 24.117188 109.1875 L 24.117188 267.089844 C 24.117188 277.390625 29.523438 286.960938 38.3125 292.0625 L 73.75 312.742188 C 90.886719 321.347656 97.023438 321.347656 104.859375 321.347656 C 130.265625 321.347656 144.910156 305.789062 144.910156 278.667969 L 144.910156 122.691406 C 144.910156 120.480469 143.085938 118.769531 140.953125 118.769531 L 123.816406 118.769531 C 121.621094 118.769531 119.859375 120.464844 119.859375 122.691406 L 119.859375 278.589844 C 119.859375 290.664062 107.554688 302.597656 87.414062 292.453125 L 50.367188 270.808594 C 49.074219 270.140625 48.265625 268.660156 48.265625 267.167969 L 48.265625 109.261719 C 48.265625 107.722656 49.074219 106.230469 50.382812 105.480469 L 185.476562 26.484375 C 186.707031 25.738281 188.402344 25.738281 189.648438 26.484375 L 324.820312 105.40625 C 326.128906 106.214844 326.9375 107.628906 326.9375 109.1875 L 326.9375 267.167969 C 326.9375 268.628906 326.144531 270.125 324.898438 270.871094 L 189.648438 349.871094 C 188.480469 350.617188 186.722656 350.617188 185.476562 349.871094 L 150.769531 329.050781 C 149.738281 328.382812 148.429688 328.148438 147.402344 328.738281 Z M 147.402344 328.738281 " fill-opacity="1" fill-rule="nonzero"/></g><path fill="#8cc03e" d="M 229.34375 242.257812 C 193.542969 242.257812 185.695312 233.136719 183.078125 215.136719 C 182.78125 213.207031 181.175781 211.804688 179.199219 211.804688 L 161.703125 211.804688 C 159.507812 211.804688 157.824219 213.578125 157.824219 215.726562 C 157.824219 238.769531 170.195312 266.265625 229.421875 266.265625 C 272.167969 266.1875 296.796875 249.085938 296.796875 219.289062 L 296.75 219.304688 C 296.75 189.742188 276.980469 181.882812 235.464844 176.328125 C 193.4375 170.695312 189.199219 167.800781 189.199219 157.875 C 189.199219 149.65625 192.796875 138.6875 223.90625 138.6875 C 251.667969 138.6875 261.917969 144.757812 266.152344 163.722656 C 266.511719 165.511719 268.132812 166.835938 269.96875 166.835938 L 287.542969 166.835938 C 288.632812 166.835938 289.660156 166.402344 290.394531 165.574219 C 291.125 164.75 291.484375 163.644531 291.421875 162.542969 C 288.710938 129.863281 267.257812 114.679688 223.90625 114.679688 C 185.320312 114.679688 162.328125 131.140625 162.328125 158.761719 C 162.328125 188.699219 185.242188 197.007812 222.222656 200.695312 C 266.527344 205.082031 269.953125 211.664062 269.953125 220.488281 C 269.984375 235.753906 257.835938 242.257812 229.34375 242.257812 Z M 229.34375 242.257812 " fill-opacity="1" fill-rule="nonzero"/></svg>