<svg xmlns="http://www.w3.org/2000/svg" xmlns:xlink="http://www.w3.org/1999/xlink" width="500" zoomAndPan="magnify" viewBox="0 0 375 374.999991" height="500" preserveAspectRatio="xMidYMid meet" version="1.0"><path fill="#0d91d6" d="M 187.5 0 L 124.894531 66.144531 L 62.1875 132.1875 L 0 197.917969 L 0 0 Z M 187.5 0 " fill-opacity="1" fill-rule="nonzero"/><path fill="#f88909" d="M 187.5 0 L 187.082031 0 L 124.6875 65.9375 L 62.082031 132.082031 L 0 197.605469 L 0 375 L 375 0 Z M 187.5 0 " fill-opacity="1" fill-rule="nonzero"/><path fill="#c757bc" d="M 90.519531 284.480469 L 0 375 L 0 198.855469 Z M 90.519531 284.480469 " fill-opacity="1" fill-rule="nonzero"/><path fill="#d3638f" d="M 154.894531 220.105469 L 90.519531 284.480469 L 0 198.855469 L 0 197.917969 L 62.1875 132.1875 Z M 154.894531 220.105469 " fill-opacity="1" fill-rule="nonzero"/><path fill="#e07063" d="M 219.375 155.625 L 154.894531 220.105469 L 62.1875 132.1875 L 124.894531 66.144531 Z M 219.375 155.625 " fill-opacity="1" fill-rule="nonzero"/><path fill="#ec7d36" d="M 283.855469 91.144531 L 219.375 155.625 L 124.894531 66.144531 L 187.5 0 Z M 283.855469 91.144531 " fill-opacity="1" fill-rule="nonzero"/><path fill="#f88909" d="M 375 0 L 283.855469 91.144531 L 187.5 0 Z M 375 0 " fill-opacity="1" fill-rule="nonzero"/><path fill="#0095d5" d="M 57.394531 136.980469 L 20.730469 175.832031 L 0 156.25 L 0 82.707031 Z M 57.394531 136.980469 " fill-opacity="1" fill-rule="nonzero"/><path fill="#2b88da" d="M 94.0625 98.125 L 57.394531 136.980469 L 0 82.707031 L 0 9.0625 Z M 94.0625 98.125 " fill-opacity="1" fill-rule="nonzero"/><path fill="#557bde" d="M 130.832031 59.375 L 94.0625 98.125 L 0 9.0625 L 0 0 L 68.019531 0 Z M 130.832031 59.375 " fill-opacity="1" fill-rule="nonzero"/><path fill="#806ee3" d="M 167.5 20.519531 L 130.832031 59.375 L 68.019531 0 L 187.5 0 Z M 167.5 20.519531 " fill-opacity="1" fill-rule="nonzero"/><path fill="#0095d5" d="M 177.082031 197.917969 L 0 375 L 354.167969 375 Z M 177.082031 197.917969 " fill-opacity="1" fill-rule="nonzero"/><path fill="#2b88da" d="M 205 375 L 120 375 L 60 315.105469 L 102.5 272.605469 Z M 205 375 " fill-opacity="1" fill-rule="nonzero"/><path fill="#557bde" d="M 290.207031 375 L 205 375 L 102.5 272.605469 L 145 230.105469 Z M 290.207031 375 " fill-opacity="1" fill-rule="nonzero"/><path fill="#806ee3" d="M 375 375 L 290.207031 375 L 145 230.105469 L 187.5 187.5 Z M 375 375 " fill-opacity="1" fill-rule="nonzero"/></svg>