<svg xmlns="http://www.w3.org/2000/svg" xmlns:xlink="http://www.w3.org/1999/xlink" width="500" zoomAndPan="magnify" viewBox="0 0 375 374.999991" height="500" preserveAspectRatio="xMidYMid meet" version="1.0"><defs><clipPath id="id1"><path d="M 93 227 L 282 227 L 282 346.703125 L 93 346.703125 Z M 93 227 " clipRule="nonzero"/></clipPath></defs><path fill="#0061ff" d="M 93.742188 28.199219 L 0 87.855469 L 93.742188 147.519531 L 187.5 87.855469 Z M 93.742188 28.199219 " fill-opacity="1" fillRule="nonzero"/><path fill="#0061ff" d="M 281.25 28.199219 L 187.5 87.863281 L 281.25 147.527344 L 375 87.863281 Z M 281.25 28.199219 " fill-opacity="1" fillRule="nonzero"/><path fill="#0061ff" d="M 0 207.1875 L 93.742188 266.84375 L 187.5 207.1875 L 93.742188 147.527344 Z M 0 207.1875 " fill-opacity="1" fillRule="nonzero"/><path fill="#0061ff" d="M 281.25 147.527344 L 187.5 207.1875 L 281.25 266.859375 L 375 207.1875 Z M 281.25 147.527344 " fill-opacity="1" fillRule="nonzero"/><g clip-path="url(#id1)"><path fill="#0061ff" d="M 93.75 286.863281 L 187.515625 346.519531 L 281.25 286.863281 L 187.515625 227.203125 Z M 93.75 286.863281 " fill-opacity="1" fillRule="nonzero"/></g></svg>