<svg xmlns="http://www.w3.org/2000/svg" xmlns:xlink="http://www.w3.org/1999/xlink" width="500" zoomAndPan="magnify" viewBox="0 0 375 374.999991" height="500" preserveAspectRatio="xMidYMid meet" version="1.0"><defs><clipPath id="id1"><path d="M 0.496094 129.332031 L 187.023438 129.332031 L 187.023438 312 L 0.496094 312 Z M 0.496094 129.332031 " clip-rule="nonzero"/></clipPath><clipPath id="id2"><path d="M 50.109375 160.136719 C 48.9375 164.410156 32.789062 224.269531 42.472656 250.488281 C 43.695312 253.808594 46.324219 260.925781 53.347656 266.023438 C 62.828125 272.90625 73.890625 271.222656 75.472656 270.960938 C 87.097656 269.050781 94.480469 260.386719 99.191406 254.636719 C 118.5625 230.988281 135.050781 205.070312 144.125 190.164062 L 168.601562 149.648438 L 187.023438 178.773438 C 153.566406 243.511719 121.59375 288.140625 103.722656 299.9375 C 94.347656 306.128906 84.503906 308.964844 84.503906 308.964844 C 79.648438 310.367188 64.832031 314.429688 48.171875 309.261719 C 26.921875 302.679688 16.3125 285.316406 12.425781 278.972656 C 6.898438 269.929688 0.878906 255.914062 0.515625 227.191406 C 0.261719 206.917969 2.726562 171.746094 21.492188 129.332031 C 31.03125 139.597656 40.570312 149.871094 50.109375 160.136719 Z M 50.109375 160.136719 " clip-rule="nonzero"/></clipPath><clipPath id="id3"><path d="M 50.109375 160.136719 C 48.9375 164.410156 32.789062 224.269531 42.472656 250.488281 C 43.695312 253.808594 46.324219 260.925781 53.347656 266.023438 C 62.828125 272.90625 73.890625 271.222656 75.472656 270.960938 C 87.097656 269.050781 94.480469 260.386719 99.191406 254.636719 C 118.5625 230.988281 135.050781 205.070312 144.125 190.164062 L 168.601562 149.648438 L 187.023438 178.773438 C 153.566406 243.511719 121.59375 288.140625 103.722656 299.9375 C 94.347656 306.128906 84.503906 308.964844 84.503906 308.964844 C 79.648438 310.367188 64.832031 314.429688 48.171875 309.261719 C 26.921875 302.679688 16.3125 285.316406 12.425781 278.972656 C 6.898438 269.929688 0.878906 255.914062 0.515625 227.191406 C 0.261719 206.917969 2.726562 171.746094 21.492188 129.332031 C 31.03125 139.597656 40.570312 149.871094 50.109375 160.136719 " clip-rule="nonzero"/></clipPath><linearGradient x1="-0.0000000000360941" gradientTransform="matrix(186.523116, 0, 0, 186.453126, 0.497582, 220.568585)" y1="0" x2="1.000008" gradientUnits="userSpaceOnUse" y2="0" id="id4"><stop stop-opacity="1" stop-color="rgb(3.898621%, 41.19873%, 88.198853%)" offset="0"/><stop stop-opacity="1" stop-color="rgb(3.898621%, 41.19873%, 88.198853%)" offset="0.125"/><stop stop-opacity="1" stop-color="rgb(3.898621%, 41.19873%, 88.198853%)" offset="0.1875"/><stop stop-opacity="1" stop-color="rgb(3.898621%, 41.296387%, 88.296509%)" offset="0.195312"/><stop stop-opacity="1" stop-color="rgb(3.897095%, 41.497803%, 88.497925%)" offset="0.203125"/><stop stop-opacity="1" stop-color="rgb(3.700256%, 41.798401%, 88.796997%)" offset="0.21875"/><stop stop-opacity="1" stop-color="rgb(3.501892%, 42.001343%, 88.999939%)" offset="0.234375"/><stop stop-opacity="1" stop-color="rgb(3.49884%, 42.204285%, 89.204407%)" offset="0.25"/><stop stop-opacity="1" stop-color="rgb(3.49884%, 42.399597%, 89.399719%)" offset="0.265625"/><stop stop-opacity="1" stop-color="rgb(3.49884%, 42.472839%, 89.498901%)" offset="0.273437"/><stop stop-opacity="1" stop-color="rgb(3.49884%, 42.622375%, 89.701843%)" offset="0.28125"/><stop stop-opacity="1" stop-color="rgb(3.49884%, 42.698669%, 90.000916%)" offset="0.296875"/><stop stop-opacity="1" stop-color="rgb(3.305054%, 42.892456%, 90.197754%)" offset="0.3125"/><stop stop-opacity="1" stop-color="rgb(3.105164%, 43.092346%, 90.296936%)" offset="0.320312"/><stop stop-opacity="1" stop-color="rgb(3.09906%, 43.101501%, 90.496826%)" offset="0.328125"/><stop stop-opacity="1" stop-color="rgb(3.09906%, 43.29834%, 90.59906%)" offset="0.34375"/><stop stop-opacity="1" stop-color="rgb(3.09906%, 43.597412%, 90.699768%)" offset="0.351563"/><stop stop-opacity="1" stop-color="rgb(3.09906%, 43.800354%, 90.899658%)" offset="0.359375"/><stop stop-opacity="1" stop-color="rgb(3.09906%, 43.899536%, 90.99884%)" offset="0.375"/><stop stop-opacity="1" stop-color="rgb(2.903748%, 44.094849%, 91.194153%)" offset="0.390625"/><stop stop-opacity="1" stop-color="rgb(2.703857%, 44.294739%, 91.493225%)" offset="0.398438"/><stop stop-opacity="1" stop-color="rgb(2.69928%, 44.302368%, 91.697693%)" offset="0.40625"/><stop stop-opacity="1" stop-color="rgb(2.69928%, 44.500732%, 91.799927%)" offset="0.421875"/><stop stop-opacity="1" stop-color="rgb(2.69928%, 44.697571%, 91.993713%)" offset="0.4375"/><stop stop-opacity="1" stop-color="rgb(2.69928%, 44.796753%, 92.193604%)" offset="0.445313"/><stop stop-opacity="1" stop-color="rgb(2.69928%, 44.996643%, 92.199707%)" offset="0.453125"/><stop stop-opacity="1" stop-color="rgb(2.69928%, 45.098877%, 92.347717%)" offset="0.46875"/><stop stop-opacity="1" stop-color="rgb(2.622986%, 45.199585%, 92.495728%)" offset="0.476563"/><stop stop-opacity="1" stop-color="rgb(2.47345%, 45.404053%, 92.503357%)" offset="0.484375"/><stop stop-opacity="1" stop-color="rgb(2.398682%, 45.704651%, 92.704773%)" offset="0.5"/><stop stop-opacity="1" stop-color="rgb(2.398682%, 45.899963%, 93.095398%)" offset="0.515625"/><stop stop-opacity="1" stop-color="rgb(2.398682%, 45.999146%, 93.295288%)" offset="0.523438"/><stop stop-opacity="1" stop-color="rgb(2.398682%, 46.199036%, 93.302917%)" offset="0.53125"/><stop stop-opacity="1" stop-color="rgb(2.398682%, 46.299744%, 93.501282%)" offset="0.546875"/><stop stop-opacity="1" stop-color="rgb(2.204895%, 46.49353%, 93.69812%)" offset="0.5625"/><stop stop-opacity="1" stop-color="rgb(2.005005%, 46.69342%, 93.797302%)" offset="0.570313"/><stop stop-opacity="1" stop-color="rgb(1.998901%, 46.70105%, 93.997192%)" offset="0.578125"/><stop stop-opacity="1" stop-color="rgb(1.998901%, 46.897888%, 94.099426%)" offset="0.59375"/><stop stop-opacity="1" stop-color="rgb(1.998901%, 47.096252%, 94.200134%)" offset="0.601563"/><stop stop-opacity="1" stop-color="rgb(1.998901%, 47.103882%, 94.404602%)" offset="0.609375"/><stop stop-opacity="1" stop-color="rgb(1.998901%, 47.303772%, 94.703674%)" offset="0.625"/><stop stop-opacity="1" stop-color="rgb(1.803589%, 47.499084%, 94.898987%)" offset="0.640625"/><stop stop-opacity="1" stop-color="rgb(1.603699%, 47.573853%, 94.998169%)" offset="0.648438"/><stop stop-opacity="1" stop-color="rgb(1.599121%, 47.72644%, 95.198059%)" offset="0.65625"/><stop stop-opacity="1" stop-color="rgb(1.599121%, 48.001099%, 95.298767%)" offset="0.671875"/><stop stop-opacity="1" stop-color="rgb(1.599121%, 48.197937%, 95.492554%)" offset="0.6875"/><stop stop-opacity="1" stop-color="rgb(1.599121%, 48.297119%, 95.692444%)" offset="0.695312"/><stop stop-opacity="1" stop-color="rgb(1.599121%, 48.497009%, 95.700073%)" offset="0.703125"/><stop stop-opacity="1" stop-color="rgb(1.599121%, 48.599243%, 95.898438%)" offset="0.71875"/><stop stop-opacity="1" stop-color="rgb(1.498413%, 48.699951%, 96.19751%)" offset="0.726563"/><stop stop-opacity="1" stop-color="rgb(1.298523%, 48.899841%, 96.400452%)" offset="0.734375"/><stop stop-opacity="1" stop-color="rgb(1.199341%, 48.999023%, 96.499634%)" offset="0.75"/><stop stop-opacity="1" stop-color="rgb(1.199341%, 49.194336%, 96.694946%)" offset="0.765625"/><stop stop-opacity="1" stop-color="rgb(1.199341%, 49.397278%, 96.897888%)" offset="0.78125"/><stop stop-opacity="1" stop-color="rgb(1.199341%, 49.60022%, 97.10083%)" offset="0.796875"/><stop stop-opacity="1" stop-color="rgb(1.005554%, 49.990845%, 97.442627%)" offset="0.8125"/><stop stop-opacity="1" stop-color="rgb(0.805664%, 50.193787%, 97.596741%)" offset="0.828125"/><stop stop-opacity="1" stop-color="rgb(0.799561%, 50.398254%, 97.798157%)" offset="0.84375"/><stop stop-opacity="1" stop-color="rgb(0.799561%, 50.596619%, 97.996521%)" offset="0.875"/><stop stop-opacity="1" stop-color="rgb(0.799561%, 50.59967%, 97.999573%)" offset="1"/></linearGradient><clipPath id="id5"><path d="M 189.171875 65 L 373 65 L 373 196 L 189.171875 196 Z M 189.171875 65 " clip-rule="nonzero"/></clipPath><clipPath id="id6"><path d="M 189.191406 119.746094 C 191.984375 115.925781 196.03125 110.632812 201.234375 104.601562 C 214.082031 89.710938 220.925781 81.738281 231.535156 75.476562 C 252.871094 62.882812 275.328125 65.449219 280.488281 66.160156 C 296.339844 68.347656 307.25 74.949219 313.117188 78.585938 C 332.605469 90.65625 342.46875 106.722656 348.855469 117.417969 C 360.457031 136.824219 365.34375 154.753906 368.671875 172.175781 C 369.332031 175.632812 372.957031 195.332031 372.957031 195.332031 L 337.746094 190.164062 C 336.582031 183.808594 334.644531 174.867188 331.375 164.410156 C 328.269531 154.46875 324.851562 143.523438 318.941406 133.339844 C 315.714844 127.773438 296.777344 95.09375 268.832031 95.285156 C 256.046875 95.367188 246.144531 102.300781 240.082031 106.542969 C 229.066406 114.257812 222.542969 124.078125 215.605469 134.503906 C 210.988281 141.457031 207.683594 147.59375 205.496094 151.992188 C 200.054688 141.242188 194.625 130.496094 189.191406 119.746094 Z M 189.191406 119.746094 " clip-rule="nonzero"/></clipPath><clipPath id="id7"><path d="M 189.191406 119.746094 C 191.984375 115.925781 196.03125 110.632812 201.234375 104.601562 C 214.082031 89.710938 220.925781 81.738281 231.535156 75.476562 C 252.871094 62.882812 275.328125 65.449219 280.488281 66.160156 C 296.339844 68.347656 307.25 74.949219 313.117188 78.585938 C 332.605469 90.65625 342.46875 106.722656 348.855469 117.417969 C 360.457031 136.824219 365.34375 154.753906 368.671875 172.175781 C 369.332031 175.632812 372.957031 195.332031 372.957031 195.332031 L 337.746094 190.164062 C 336.582031 183.808594 334.644531 174.867188 331.375 164.410156 C 328.269531 154.46875 324.851562 143.523438 318.941406 133.339844 C 315.714844 127.773438 296.777344 95.09375 268.832031 95.285156 C 256.046875 95.367188 246.144531 102.300781 240.082031 106.542969 C 229.066406 114.257812 222.542969 124.078125 215.605469 134.503906 C 210.988281 141.457031 207.683594 147.59375 205.496094 151.992188 C 200.054688 141.242188 194.625 130.496094 189.191406 119.746094 " clip-rule="nonzero"/></clipPath><clipPath id="id8"><path d="M 216.304688 -2.265625 L 142.195312 175.792969 L 345.835938 260.488281 L 419.953125 82.429688 Z M 216.304688 -2.265625 " clip-rule="nonzero"/></clipPath><linearGradient x1="-0.133351" gradientTransform="matrix(169.667976, 70.568212, -70.594694, 169.604316, 204.28741, 91.599458)" y1="0" x2="1.064347" gradientUnits="userSpaceOnUse" y2="0" id="id9"><stop stop-opacity="1" stop-color="rgb(0.799561%, 50.59967%, 97.999573%)" offset="0"/><stop stop-opacity="1" stop-color="rgb(0.799561%, 50.59967%, 97.999573%)" offset="0.25"/><stop stop-opacity="1" stop-color="rgb(0.799561%, 50.59967%, 97.999573%)" offset="0.3125"/><stop stop-opacity="1" stop-color="rgb(0.799561%, 50.59967%, 97.999573%)" offset="0.34375"/><stop stop-opacity="1" stop-color="rgb(0.799561%, 50.575256%, 97.975159%)" offset="0.359375"/><stop stop-opacity="1" stop-color="rgb(0.817871%, 50.357056%, 97.761536%)" offset="0.375"/><stop stop-opacity="1" stop-color="rgb(1.017761%, 49.966431%, 97.419739%)" offset="0.390625"/><stop stop-opacity="1" stop-color="rgb(1.199341%, 49.665833%, 97.166443%)" offset="0.398438"/><stop stop-opacity="1" stop-color="rgb(1.199341%, 49.459839%, 96.958923%)" offset="0.40625"/><stop stop-opacity="1" stop-color="rgb(1.2146%, 49.162292%, 96.661377%)" offset="0.421875"/><stop stop-opacity="1" stop-color="rgb(1.329041%, 48.869324%, 96.369934%)" offset="0.429688"/><stop stop-opacity="1" stop-color="rgb(1.512146%, 48.674011%, 96.173096%)" offset="0.4375"/><stop stop-opacity="1" stop-color="rgb(1.599121%, 48.472595%, 95.97168%)" offset="0.445312"/><stop stop-opacity="1" stop-color="rgb(1.599121%, 48.265076%, 95.76416%)" offset="0.453125"/><stop stop-opacity="1" stop-color="rgb(1.612854%, 47.970581%, 95.466614%)" offset="0.46875"/><stop stop-opacity="1" stop-color="rgb(1.731873%, 47.7005%, 95.167542%)" offset="0.476562"/><stop stop-opacity="1" stop-color="rgb(1.916504%, 47.56012%, 94.960022%)" offset="0.484375"/><stop stop-opacity="1" stop-color="rgb(1.998901%, 47.483826%, 94.662476%)" offset="0.5"/><stop stop-opacity="1" stop-color="rgb(1.998901%, 47.370911%, 94.371033%)" offset="0.507812"/><stop stop-opacity="1" stop-color="rgb(1.998901%, 47.174072%, 94.174194%)" offset="0.515625"/><stop stop-opacity="1" stop-color="rgb(1.998901%, 46.972656%, 93.972778%)" offset="0.523438"/><stop stop-opacity="1" stop-color="rgb(2.017212%, 46.765137%, 93.783569%)" offset="0.53125"/><stop stop-opacity="1" stop-color="rgb(2.217102%, 46.46759%, 93.685913%)" offset="0.546875"/><stop stop-opacity="1" stop-color="rgb(2.398682%, 46.078491%, 93.478394%)" offset="0.5625"/><stop stop-opacity="1" stop-color="rgb(2.398682%, 45.777893%, 93.177795%)" offset="0.570312"/><stop stop-opacity="1" stop-color="rgb(2.398682%, 45.585632%, 92.970276%)" offset="0.578125"/><stop stop-opacity="1" stop-color="rgb(2.406311%, 45.487976%, 92.675781%)" offset="0.59375"/><stop stop-opacity="1" stop-color="rgb(2.493286%, 45.373535%, 92.404175%)" offset="0.601562"/><stop stop-opacity="1" stop-color="rgb(2.635193%, 45.166016%, 92.245483%)" offset="0.609375"/><stop stop-opacity="1" stop-color="rgb(2.69928%, 44.868469%, 91.981506%)" offset="0.625"/><stop stop-opacity="1" stop-color="rgb(2.69928%, 44.487%, 91.790771%)" offset="0.640625"/><stop stop-opacity="1" stop-color="rgb(2.69928%, 44.299316%, 91.679382%)" offset="0.648438"/><stop stop-opacity="1" stop-color="rgb(2.714539%, 44.284058%, 91.471863%)" offset="0.65625"/><stop stop-opacity="1" stop-color="rgb(2.914429%, 44.073486%, 91.174316%)" offset="0.671875"/><stop stop-opacity="1" stop-color="rgb(3.09906%, 43.684387%, 90.788269%)" offset="0.6875"/><stop stop-opacity="1" stop-color="rgb(3.09906%, 43.293762%, 90.586853%)" offset="0.703125"/><stop stop-opacity="1" stop-color="rgb(3.106689%, 43.09082%, 90.379333%)" offset="0.71875"/><stop stop-opacity="1" stop-color="rgb(3.218079%, 42.979431%, 90.080261%)" offset="0.726562"/><stop stop-opacity="1" stop-color="rgb(3.410339%, 42.776489%, 89.872742%)" offset="0.734375"/><stop stop-opacity="1" stop-color="rgb(3.49884%, 42.538452%, 89.584351%)" offset="0.75"/><stop stop-opacity="1" stop-color="rgb(3.49884%, 42.393494%, 89.393616%)" offset="0.765625"/><stop stop-opacity="1" stop-color="rgb(3.49884%, 42.193604%, 89.193726%)" offset="0.78125"/><stop stop-opacity="1" stop-color="rgb(3.504944%, 41.992188%, 88.99231%)" offset="0.796875"/><stop stop-opacity="1" stop-color="rgb(3.704834%, 41.792297%, 88.790894%)" offset="0.8125"/><stop stop-opacity="1" stop-color="rgb(3.898621%, 41.497803%, 88.497925%)" offset="0.84375"/><stop stop-opacity="1" stop-color="rgb(3.898621%, 41.297913%, 88.298035%)" offset="0.875"/><stop stop-opacity="1" stop-color="rgb(3.898621%, 41.19873%, 88.198853%)" offset="1"/></linearGradient><clipPath id="id10"><path d="M 20 62.578125 L 374.445312 62.578125 L 374.445312 312.328125 L 20 312.328125 Z M 20 62.578125 " clip-rule="nonzero"/></clipPath></defs><g clip-path="url(#id1)"><g clip-path="url(#id2)"><g clip-path="url(#id3)"><path fill="url(#id4)" d="M 0.496094 129.332031 L 0.496094 312.023438 L 187.023438 312.023438 L 187.023438 129.332031 Z M 0.496094 129.332031 " fill-rule="nonzero"/></g></g></g><g clip-path="url(#id5)"><g clip-path="url(#id6)"><g clip-path="url(#id7)"><g clip-path="url(#id8)"><path fill="url(#id9)" d="M 216.308594 -1.054688 L 142.628906 175.96875 L 345.839844 260.488281 L 419.519531 83.464844 Z M 216.308594 -1.054688 " fill-rule="nonzero"/></g></g></g></g><g clip-path="url(#id10)"><path fill="#0a69e1" d="M 20.046875 132.664062 C 25.8125 118.855469 38.675781 94.121094 64.875 77.035156 C 71.945312 72.417969 82.734375 65.804688 98.300781 63.332031 C 109.414062 61.566406 123.078125 62.566406 140.632812 69.65625 C 181.03125 85.964844 221.824219 156.25 221.824219 156.25 C 254.078125 217.847656 282.566406 260.132812 294.078125 266.542969 C 301.84375 270.863281 309.359375 271.074219 309.359375 271.074219 C 316.492188 271.277344 322.265625 268.851562 325.808594 266.933594 C 328.089844 265.265625 331.269531 262.5625 334.097656 258.515625 C 338.757812 251.855469 340.226562 244.75 340.832031 236.769531 C 342.527344 214.382812 337.273438 186.925781 336.042969 180.71875 C 339.945312 180.71875 344.246094 180.933594 348.855469 181.496094 C 357.855469 182.59375 365.578125 184.710938 371.78125 186.933594 C 373.921875 200.242188 381.421875 254.136719 355.460938 289.453125 C 351.691406 294.585938 344.992188 303.46875 332.976562 308.570312 C 312.292969 317.351562 291.429688 308.316406 285.53125 305.765625 C 271.703125 299.773438 262.882812 290.90625 254.066406 280.910156 C 231.765625 255.617188 218.714844 233.882812 193.851562 191.984375 C 188.625 183.171875 179.8125 168.347656 168.601562 149.648438 C 153.328125 118.148438 126.460938 99.375 104.144531 103.277344 C 84.9375 106.632812 69.960938 126.613281 64.09375 134.503906 C 56.925781 144.152344 52.671875 153.386719 50.109375 160.136719 C 40.089844 150.980469 30.066406 141.824219 20.046875 132.664062 " fill-opacity="1" fill-rule="nonzero"/></g></svg>