<svg xmlns="http://www.w3.org/2000/svg" xmlns:xlink="http://www.w3.org/1999/xlink" width="500" zoomAndPan="magnify" viewBox="0 0 375 374.999991" height="500" preserveAspectRatio="xMidYMid meet" version="1.0"><defs><clipPath id="id1"><path d="M 5 4.921875 L 265 4.921875 L 265 284 L 5 284 Z M 5 4.921875 " clip-rule="nonzero"/></clipPath><clipPath id="id2"><path d="M 110 91 L 371 91 L 371 370.171875 L 110 370.171875 Z M 110 91 " clip-rule="nonzero"/></clipPath></defs><g clip-path="url(#id1)"><path fill="#0277bd" d="M 192.277344 4.921875 C 177.332031 4.96875 166.972656 6.285156 154.453125 8.449219 C 117.476562 14.890625 110.742188 28.414062 110.742188 53.335938 L 110.742188 91.429688 L 197.226562 91.429688 L 197.226562 110.652344 L 65.652344 110.652344 C 40.324219 110.652344 18.152344 122.589844 11.128906 151.203125 C 3.191406 184.046875 2.835938 204.617188 11.128906 238.914062 C 17.421875 264.488281 31.289062 283.664062 56.628906 283.664062 L 91.53125 283.664062 L 91.53125 234.605469 C 91.53125 206.097656 117.34375 177.933594 146.917969 177.933594 L 216.453125 177.933594 C 240.699219 177.933594 264.5 160.039062 264.5 135.863281 L 264.5 53.335938 C 264.5 29.894531 247.597656 12.363281 223.96875 8.429688 C 224.554688 8.371094 207.09375 4.863281 192.277344 4.921875 Z M 144.382812 43.371094 C 152.273438 43.371094 158.796875 49.875 158.796875 57.804688 C 158.796875 65.8125 152.273438 72.203125 144.382812 72.203125 C 136.339844 72.203125 129.96875 65.824219 129.96875 57.804688 C 129.96875 49.90625 136.339844 43.371094 144.382812 43.371094 Z M 144.382812 43.371094 " fill-opacity="1" fill-rule="nonzero"/></g><g clip-path="url(#id2)"><path fill="#ffc107" d="M 182.964844 370.171875 C 197.90625 370.125 208.265625 368.808594 220.785156 366.644531 C 257.765625 360.203125 264.5 346.679688 264.5 321.757812 L 264.5 283.664062 L 178.015625 283.664062 L 178.015625 264.441406 L 309.597656 264.441406 C 334.925781 264.441406 357.097656 252.503906 364.121094 223.890625 C 372.058594 191.046875 372.414062 170.476562 364.121094 136.179688 C 357.816406 110.605469 343.949219 91.429688 318.609375 91.429688 L 283.710938 91.429688 L 283.710938 140.488281 C 283.710938 168.996094 257.898438 197.160156 228.320312 197.160156 L 158.789062 197.160156 C 134.542969 197.160156 110.742188 215.054688 110.742188 239.230469 L 110.742188 321.757812 C 110.742188 345.199219 127.644531 362.730469 151.273438 366.664062 C 150.6875 366.722656 168.148438 370.230469 182.964844 370.171875 Z M 230.867188 331.722656 C 222.976562 331.722656 216.453125 325.21875 216.453125 317.289062 C 216.453125 309.28125 222.976562 302.890625 230.867188 302.890625 C 238.910156 302.890625 245.28125 309.269531 245.28125 317.289062 C 245.28125 325.1875 238.902344 331.722656 230.867188 331.722656 Z M 230.867188 331.722656 " fill-opacity="1" fill-rule="nonzero"/></g></svg>