<svg xmlns="http://www.w3.org/2000/svg" xmlns:xlink="http://www.w3.org/1999/xlink" width="500" zoomAndPan="magnify" viewBox="0 0 375 374.999991" height="500" preserveAspectRatio="xMidYMid meet" version="1.0"><defs><clipPath id="id1"><path d="M 1 22.5 L 364 22.5 L 364 343 L 1 343 Z M 1 22.5 " clipRule="nonzero"/></clipPath></defs><g clipPath="url(#id1)"><path fill="#e94e36" d="M 223.632812 22.125 C 259.980469 70.886719 274.339844 128.882812 261.667969 181.003906 C 260.824219 185.195312 259.136719 190.257812 257.449219 194.445312 C 254.765625 192.953125 252.550781 191.582031 250.425781 190.089844 L 250.667969 190.257812 C 250.667969 190.257812 168.710938 139.824219 80.84375 51.550781 C 78.296875 49.035156 128.160156 122.148438 183.929688 180.160156 C 157.738281 165.019531 83.375 112.082031 36.890625 69.195312 C 41.96875 78.433594 49.578125 87.6875 57.171875 96.9375 C 96.050781 146.542969 146.753906 207.042969 207.601562 253.273438 C 164.503906 279.359375 104.503906 281.015625 43.65625 253.273438 C 28.4375 246.570312 15.78125 238.160156 1.402344 228.0625 C 26.75 267.574219 66.46875 303.738281 113.800781 323.054688 C 170.414062 347.453125 227.867188 345.765625 269.277344 323.054688 L 270.136719 323.054688 C 271.824219 322.210938 273.511719 321.382812 275.199219 319.695312 C 295.480469 309.601562 335.203125 298.675781 357.171875 340.714844 C 363.078125 352.484375 374.0625 297.847656 332.667969 247.414062 L 332.65625 247.414062 C 333.5 245.738281 333.5 244.050781 334.34375 242.378906 C 354.625 163.34375 306.449219 70.886719 223.632812 22.125 Z M 223.632812 22.125 " fillOpacity="1" fillRule="nonzero"/></g></svg>