<svg xmlns="http://www.w3.org/2000/svg" xmlns:xlink="http://www.w3.org/1999/xlink" width="500" zoomAndPan="magnify" viewBox="0 0 375 374.999991" height="500" preserveAspectRatio="xMidYMid meet" version="1.0"><defs><clipPath id="id1"><path d="M 0 39 L 375 39 L 375 343.363281 L 0 343.363281 Z M 0 39 " clipRule="nonzero"/></clipPath></defs><g clipPath="url(#id1)"><path fill="#000000" d="M 336.269531 115.207031 C 336.496094 118.503906 336.496094 121.800781 336.496094 125.121094 C 336.496094 226.464844 259.277344 343.339844 118.085938 343.339844 L 118.085938 343.28125 C 76.375 343.347656 35.535156 331.414062 0.421875 308.902344 C 6.484375 309.628906 12.582031 309.996094 18.695312 310.011719 C 53.261719 310.039062 86.835938 298.453125 114.03125 277.113281 C 81.179688 276.492188 52.378906 255.09375 42.3125 223.851562 C 53.820312 226.070312 65.675781 225.613281 76.96875 222.527344 C 41.152344 215.296875 15.390625 183.855469 15.390625 147.347656 C 15.390625 147.011719 15.390625 146.699219 15.390625 146.375 C 26.058594 152.3125 38.011719 155.609375 50.230469 155.976562 C 16.503906 133.464844 6.109375 88.632812 26.480469 53.578125 C 65.449219 101.496094 122.949219 130.625 184.679688 133.703125 C 178.492188 107.066406 186.945312 79.152344 206.890625 60.425781 C 237.808594 31.386719 286.433594 32.875 315.5 63.753906 C 332.6875 60.367188 349.164062 54.0625 364.242188 45.136719 C 358.511719 62.894531 346.523438 77.972656 330.5 87.550781 C 345.714844 85.757812 360.582031 81.6875 374.585938 75.476562 C 364.273438 90.90625 351.289062 104.351562 336.269531 115.207031 Z M 336.269531 115.207031 " fillOpacity="1" fillRule="nonzero"/></g></svg>